<svg id="レイヤー_1" data-name="レイヤー 1" xmlns="http://www.w3.org/2000/svg" viewBox="0 0 20.9 29.11"><defs><style>.cls-1{fill:#ffebd6;}.cls-2{fill:#222;}</style></defs><title>ico_specialty</title><path class="cls-1" d="M11,9.49a3.5,3.5,0,0,1-1.6,4.68h0a3.5,3.5,0,0,1-4.68-1.6L1.61,6.29a3.5,3.5,0,0,1,1.6-4.68h0a3.5,3.5,0,0,1,4.68,1.6Z"/><path class="cls-2" d="M9.93,15.3a4.76,4.76,0,0,1-6.36-2.17L.49,6.84A4.75,4.75,0,1,1,9,2.66L12.1,8.94A4.76,4.76,0,0,1,9.93,15.3ZM3.76,2.73a2.25,2.25,0,0,0-1,3L5.81,12a2.25,2.25,0,0,0,4-2L6.77,3.76A2.25,2.25,0,0,0,3.76,2.73Z"/><rect class="cls-1" x="3.13" y="9.88" width="16" height="18" rx="7.78" ry="7.78" transform="translate(-7.18 6.84) rotate(-26.15)"/><path class="cls-2" d="M15.85,28l-.4.2A9,9,0,0,1,3.37,24.06l-1.08-2.2A9,9,0,0,1,6.41,9.78l.4-.2A9,9,0,0,1,18.9,13.71L20,15.9A9,9,0,0,1,15.85,28ZM7.52,12a6.53,6.53,0,0,0-3,8.74L5.61,23a6.53,6.53,0,0,0,8.74,3l.4-.2a6.53,6.53,0,0,0,3-8.74l-1.08-2.2a6.53,6.53,0,0,0-8.74-3Z"/><path class="cls-2" d="M16.68,14.13l-.12,0-6.83,2A.75.75,0,0,1,9.3,14.7l6.83-2a.75.75,0,0,1,.54,1.39Z"/><path class="cls-2" d="M18.48,17.8l-.12,0-6.83,2a.75.75,0,0,1-.41-1.44l6.83-2a.75.75,0,0,1,.54,1.39Z"/><path class="cls-2" d="M20.28,21.47l-.12,0-6.83,2A.75.75,0,0,1,12.9,22l6.83-2a.75.75,0,0,1,.54,1.39Z"/></svg>