<svg style="position: absolute; width: 0; height: 0; overflow: hidden;" version="1.1" xmlns="http://www.w3.org/2000/svg">
<defs>
<symbol id="logo-banks" viewBox="0 0 26 32">
<title>logo-banks</title>
<path fill="#fff" style="fill: var(--color1, #fff)" d="M2.046 26.229c0.482 0.039 0.83 0.154 1.062 0.347s0.347 0.444 0.347 0.753c0 0.27-0.077 0.483-0.232 0.675s-0.347 0.309-0.598 0.367c-0.251 0.058-0.56 0.096-0.984 0.096h-1.641v-0.135h0.154c0.174 0 0.309-0.019 0.367-0.077 0.077-0.039 0.116-0.116 0.135-0.212s0.019-0.309 0.019-0.675v-2.027c0-0.347-0.019-0.56-0.039-0.656s-0.058-0.174-0.116-0.212c-0.058-0.039-0.193-0.058-0.405-0.058h-0.077v-0.135l0.695-0.019 0.791-0.019c1.139 0 1.718 0.328 1.718 0.984 0 0.27-0.096 0.483-0.289 0.656-0.212 0.174-0.502 0.29-0.907 0.347zM1.293 26.171h0.135c0.444 0 0.753-0.077 0.907-0.212s0.251-0.367 0.251-0.675c0-0.212-0.039-0.386-0.096-0.502s-0.154-0.212-0.289-0.27c-0.135-0.058-0.347-0.096-0.656-0.096h-0.251v1.756zM1.293 26.306v0.926c0 0.405 0 0.656 0.019 0.753 0.019 0.116 0.058 0.193 0.116 0.251s0.193 0.077 0.367 0.077c0.328 0 0.579-0.077 0.733-0.251 0.174-0.174 0.251-0.425 0.251-0.753 0-0.347-0.096-0.598-0.27-0.772-0.193-0.154-0.521-0.251-0.984-0.251-0.077 0.019-0.154 0.019-0.232 0.019zM7.72 26.924h-1.583l-0.116 0.27c-0.154 0.386-0.232 0.637-0.232 0.753s0.039 0.212 0.135 0.29c0.077 0.058 0.193 0.096 0.328 0.096v0.135h-1.235v-0.135c0.193-0.019 0.328-0.096 0.405-0.193 0.096-0.096 0.193-0.309 0.328-0.637 0.019-0.039 0.058-0.154 0.154-0.367l1.216-2.895h0.116l1.39 3.32 0.193 0.444c0.039 0.096 0.097 0.174 0.174 0.232s0.174 0.096 0.328 0.116v0.135h-1.641v-0.135c0.193 0 0.328-0.019 0.405-0.039s0.116-0.096 0.116-0.174c0-0.039-0.039-0.174-0.135-0.405l-0.347-0.811zM7.662 26.789l-0.733-1.776-0.733 1.776h1.467zM14.417 28.565l-2.953-3.918v2.895c0 0.232 0.019 0.405 0.039 0.483s0.097 0.154 0.193 0.212c0.116 0.058 0.27 0.096 0.502 0.096v0.135h-1.563v-0.135c0.193-0.019 0.347-0.058 0.463-0.116 0.097-0.058 0.174-0.116 0.193-0.193s0.039-0.232 0.039-0.483v-2.22c0-0.328-0.019-0.54-0.039-0.637-0.039-0.116-0.077-0.174-0.135-0.212s-0.212-0.039-0.425-0.039v-0.135h1.235l2.47 3.262v-2.49c0-0.193-0.019-0.309-0.058-0.386s-0.116-0.135-0.232-0.174c-0.116-0.039-0.251-0.058-0.425-0.058v-0.135h1.525v0.135c-0.174 0.019-0.309 0.058-0.425 0.096-0.097 0.058-0.174 0.116-0.193 0.193s-0.039 0.193-0.039 0.386v3.435h-0.174zM17.949 26.422l1.274-1.158c0.29-0.27 0.444-0.444 0.444-0.56 0-0.174-0.154-0.251-0.444-0.27v-0.135h1.583v0.135c-0.135 0-0.251 0.039-0.386 0.077-0.135 0.058-0.251 0.116-0.367 0.212-0.116 0.077-0.309 0.27-0.598 0.54l-0.753 0.695 1.563 1.583c0.347 0.367 0.598 0.579 0.714 0.656s0.27 0.116 0.463 0.116v0.135h-2.162v-0.135h0.077c0.232 0 0.386-0.019 0.444-0.058s0.077-0.096 0.077-0.135c0-0.077-0.154-0.27-0.444-0.579l-1.177-1.197-0.29 0.27v0.753c0 0.328 0 0.54 0.019 0.637s0.058 0.174 0.116 0.232c0.058 0.058 0.193 0.077 0.386 0.077h0.077v0.135h-1.872v-0.135h0.135c0.174 0 0.309-0.019 0.367-0.077 0.077-0.039 0.116-0.116 0.135-0.212s0.039-0.309 0.039-0.675v-2.046c0-0.347-0.019-0.56-0.039-0.656s-0.058-0.154-0.135-0.193c-0.058-0.039-0.212-0.058-0.444-0.058v-0.135h1.853v0.135h-0.077c-0.212 0-0.347 0.019-0.405 0.058s-0.116 0.096-0.135 0.193c-0.019 0.096-0.039 0.309-0.039 0.656v1.119zM23.064 28.429v-1.351h0.154c0.174 0.869 0.579 1.312 1.235 1.312 0.29 0 0.521-0.077 0.675-0.251s0.251-0.347 0.251-0.56c0-0.212-0.077-0.386-0.212-0.521s-0.405-0.29-0.772-0.444c-0.328-0.135-0.579-0.27-0.753-0.386s-0.309-0.251-0.405-0.425c-0.096-0.174-0.135-0.347-0.135-0.56 0-0.29 0.096-0.54 0.309-0.753 0.212-0.193 0.463-0.29 0.791-0.29 0.174 0 0.347 0.019 0.502 0.077s0.309 0.174 0.483 0.367c0.096-0.116 0.154-0.232 0.154-0.367h0.135v1.1h-0.135c-0.077-0.309-0.212-0.56-0.405-0.753-0.193-0.174-0.425-0.27-0.695-0.27-0.251 0-0.425 0.058-0.54 0.193s-0.174 0.29-0.174 0.444c0 0.193 0.077 0.347 0.212 0.483s0.405 0.29 0.772 0.463c0.367 0.154 0.618 0.29 0.791 0.386 0.154 0.096 0.29 0.232 0.386 0.405s0.154 0.367 0.154 0.598c0 0.367-0.116 0.656-0.347 0.869-0.232 0.232-0.56 0.328-0.946 0.328-0.463 0-0.849-0.174-1.139-0.521-0.077 0.096-0.116 0.232-0.154 0.405h-0.193zM5.501 31.112v0.386c0 0.135 0 0.232 0.019 0.29 0 0.039 0.019 0.077 0.058 0.096s0.077 0.039 0.174 0.039h0.039v0.058h-0.83v-0.058h0.058c0.077 0 0.135-0.019 0.154-0.039 0.039-0.019 0.058-0.058 0.058-0.096s0.019-0.135 0.019-0.29v-0.888c0-0.135 0-0.232-0.019-0.27s-0.019-0.077-0.058-0.077-0.096-0.019-0.174-0.019h-0.039v-0.058h0.656c0.193 0 0.328 0.019 0.425 0.039 0.096 0.039 0.193 0.077 0.251 0.154s0.096 0.174 0.096 0.29c0 0.096-0.019 0.193-0.058 0.27s-0.116 0.135-0.193 0.174c-0.077 0.039-0.232 0.058-0.444 0.058h-0.193zM5.501 31.035h0.135c0.096 0 0.193-0.019 0.251-0.039s0.116-0.058 0.154-0.135c0.039-0.058 0.058-0.154 0.058-0.251 0-0.154-0.039-0.251-0.116-0.328s-0.193-0.096-0.367-0.096h-0.135v0.849zM8.955 31.961h-0.482c-0.077-0.058-0.212-0.212-0.405-0.483l-0.174-0.232c-0.058-0.077-0.096-0.116-0.135-0.135-0.019-0.019-0.058-0.019-0.116-0.019h-0.077v0.405c0 0.135 0 0.232 0.019 0.29 0 0.039 0.019 0.077 0.058 0.096 0.019 0.019 0.077 0.039 0.174 0.039h0.096v0.058h-0.869v-0.058h0.058c0.077 0 0.135-0.019 0.154-0.039 0.039-0.019 0.058-0.058 0.058-0.096s0.019-0.135 0.019-0.29v-0.888c0-0.135 0-0.232-0.019-0.27 0-0.039-0.019-0.077-0.058-0.077-0.019-0.019-0.096-0.019-0.174-0.019h-0.039v-0.058l0.251-0.019c0.174 0 0.309-0.019 0.405-0.019 0.174 0 0.309 0.019 0.425 0.039 0.116 0.039 0.193 0.077 0.27 0.154 0.058 0.077 0.097 0.154 0.097 0.27s-0.039 0.212-0.135 0.309c-0.097 0.077-0.212 0.135-0.386 0.154 0.077 0.039 0.193 0.174 0.367 0.386 0.135 0.193 0.251 0.309 0.328 0.367s0.174 0.096 0.27 0.096v0.039zM7.585 31.016h0.212c0.077 0 0.135-0.019 0.193-0.039s0.096-0.039 0.135-0.077c0.039-0.039 0.058-0.077 0.077-0.116 0.019-0.058 0.019-0.116 0.019-0.193 0-0.135-0.039-0.232-0.097-0.309s-0.193-0.116-0.425-0.116h-0.116v0.849zM9.65 31.035c0-0.29 0.097-0.502 0.29-0.675s0.425-0.251 0.695-0.251c0.29 0 0.521 0.077 0.714 0.251s0.29 0.405 0.29 0.695-0.097 0.502-0.27 0.675c-0.174 0.174-0.425 0.27-0.714 0.27s-0.521-0.096-0.714-0.27c-0.212-0.174-0.29-0.405-0.29-0.695zM9.959 31.054c0 0.29 0.058 0.502 0.174 0.656s0.29 0.212 0.521 0.212c0.212 0 0.367-0.077 0.482-0.212 0.116-0.154 0.174-0.367 0.174-0.656s-0.058-0.502-0.174-0.656c-0.116-0.154-0.29-0.232-0.502-0.232s-0.386 0.077-0.502 0.212c-0.116 0.174-0.174 0.386-0.174 0.675zM12.372 30.166l0.29-0.019c0.251-0.019 0.425-0.019 0.502-0.019 0.27 0 0.482 0.039 0.637 0.116s0.27 0.193 0.328 0.328c0.077 0.135 0.116 0.309 0.116 0.483 0 0.135-0.019 0.251-0.058 0.367s-0.097 0.193-0.174 0.27c-0.077 0.077-0.154 0.135-0.251 0.174s-0.174 0.058-0.27 0.077c-0.077 0-0.193 0.019-0.347 0.019h-0.791v-0.058h0.077c0.077 0 0.135-0.019 0.154-0.039 0.039-0.019 0.058-0.058 0.058-0.096s0.019-0.135 0.019-0.29v-0.869c0-0.135 0-0.232-0.019-0.29 0-0.039-0.019-0.077-0.058-0.077-0.019-0.019-0.077-0.019-0.174-0.019h-0.058v-0.058zM12.931 30.205v1.216c0 0.174 0 0.29 0.019 0.347 0 0.058 0.019 0.096 0.058 0.116s0.097 0.039 0.212 0.039c0.154 0 0.29-0.019 0.386-0.058s0.193-0.135 0.251-0.251c0.077-0.135 0.097-0.29 0.097-0.483 0-0.154-0.019-0.29-0.058-0.405s-0.097-0.212-0.174-0.29c-0.077-0.077-0.154-0.135-0.251-0.154s-0.212-0.039-0.347-0.039c-0.058-0.058-0.135-0.058-0.193-0.039zM16.386 30.147h0.598v0.058c-0.077 0-0.135 0.019-0.174 0.058s-0.058 0.058-0.077 0.096c0 0.039-0.019 0.116-0.019 0.232v0.598c0 0.154 0 0.27-0.019 0.347s-0.039 0.154-0.096 0.212c-0.058 0.077-0.135 0.135-0.251 0.174-0.096 0.039-0.232 0.058-0.367 0.058-0.154 0-0.29-0.019-0.405-0.077s-0.193-0.135-0.232-0.212-0.077-0.212-0.077-0.347v-0.753c0-0.135 0-0.232-0.019-0.27 0-0.039-0.019-0.077-0.058-0.077-0.019-0.019-0.077-0.019-0.174-0.019h-0.039v-0.058h0.83v0.058h-0.039c-0.097 0-0.154 0-0.174 0.019s-0.039 0.039-0.058 0.077c0 0.039-0.019 0.135-0.019 0.29v0.579c0 0.193 0 0.347 0.019 0.425s0.077 0.154 0.154 0.212c0.077 0.058 0.193 0.096 0.347 0.096 0.116 0 0.212-0.019 0.309-0.058s0.154-0.096 0.193-0.154c0.039-0.058 0.077-0.135 0.077-0.193 0.019-0.058 0.019-0.174 0.019-0.309v-0.618c0-0.096 0-0.174-0.019-0.212s-0.039-0.077-0.077-0.096c-0.039-0.019-0.096-0.039-0.174-0.039v-0.096zM19.32 31.286h0.058v0.637h-0.058c-0.019-0.077-0.039-0.135-0.096-0.193-0.154 0.174-0.367 0.27-0.618 0.27-0.27 0-0.483-0.077-0.637-0.251-0.174-0.174-0.251-0.386-0.251-0.656 0-0.174 0.039-0.347 0.116-0.502s0.193-0.27 0.328-0.347c0.135-0.077 0.29-0.116 0.444-0.116 0.135 0 0.251 0.019 0.367 0.077s0.193 0.116 0.251 0.193c0.039-0.077 0.058-0.154 0.077-0.232h0.058l0.019 0.695h-0.058c-0.039-0.251-0.116-0.405-0.251-0.502-0.116-0.096-0.27-0.135-0.425-0.135-0.193 0-0.347 0.077-0.444 0.232-0.116 0.154-0.174 0.367-0.174 0.656 0 0.27 0.058 0.483 0.174 0.618s0.27 0.212 0.463 0.212c0.096 0 0.193-0.019 0.29-0.077 0.096-0.039 0.174-0.135 0.232-0.232 0.096-0.135 0.116-0.251 0.135-0.347zM21.674 31.402h0.058l-0.039 0.56h-1.505v-0.058h0.039c0.096 0 0.154-0.019 0.174-0.039s0.039-0.058 0.058-0.096c0-0.039 0.019-0.135 0.019-0.29v-0.888c0-0.135 0-0.232-0.019-0.27 0-0.039-0.019-0.077-0.058-0.096-0.019-0.019-0.077-0.019-0.174-0.019v-0.058h1.293l0.039 0.444h-0.058c-0.019-0.135-0.058-0.212-0.096-0.27s-0.096-0.077-0.154-0.096c-0.058-0.019-0.154-0.019-0.27-0.019h-0.251v0.753h0.193c0.096 0 0.154 0 0.193-0.019s0.058-0.039 0.077-0.077c0.019-0.039 0.019-0.096 0.019-0.174h0.058v0.618h-0.058c0-0.096 0-0.174-0.019-0.193-0.019-0.039-0.039-0.058-0.077-0.058-0.039-0.019-0.096-0.019-0.174-0.019h-0.193v0.425c0 0.212 0.019 0.347 0.039 0.386s0.096 0.058 0.232 0.058h0.135c0.096 0 0.174-0.019 0.232-0.039s0.116-0.077 0.174-0.154c0.039-0.077 0.077-0.193 0.116-0.309z"></path>
<path fill="#f0bf1b" style="fill: var(--color2, #f0bf1b)" d="M5.385 16.29v4.902h4.902c-2.277-0.811-4.092-2.606-4.902-4.902z"></path>
<path fill="#fff" style="fill: var(--color1, #fff)" d="M12.989 5.925c-1.216 0-2.374 0.29-3.397 0.791v-6.717l-4.285 2.413v11.194c0 4.246 3.435 7.682 7.682 7.682s7.682-3.435 7.682-7.682c0-4.246-3.435-7.682-7.682-7.682zM16.135 15.44l-3.242 1.872-3.262-1.872v-3.764l3.242-1.872 3.242 1.872v3.764z"></path>
</symbol>
<symbol id="logo-banks_typo" viewBox="0 0 106 32">
<title>logo-banks_typo</title>
<path d="M8.415 8.253c1.942 0.162 3.398 0.647 4.329 1.456s1.416 1.861 1.416 3.115c0 1.092-0.324 2.023-0.971 2.791s-1.456 1.295-2.468 1.537c-1.011 0.243-2.346 0.364-4.005 0.364h-6.716v-0.566h0.647c0.728 0 1.254-0.081 1.537-0.283s0.445-0.485 0.526-0.89c0.081-0.405 0.121-1.295 0.121-2.751v-8.374c0-1.375-0.040-2.306-0.121-2.711s-0.243-0.647-0.485-0.809c-0.243-0.162-0.809-0.243-1.699-0.243h-0.324v-0.566l2.832-0.081 3.236-0.121c4.693 0 7.039 1.335 7.039 4.045 0 1.133-0.405 2.023-1.214 2.67-0.85 0.728-2.063 1.173-3.681 1.416zM5.34 8.010h0.526c1.82 0 3.075-0.283 3.722-0.85s1.011-1.497 1.011-2.791c0-0.89-0.121-1.578-0.405-2.063-0.243-0.485-0.647-0.85-1.173-1.133s-1.416-0.405-2.67-0.405c-0.324 0-0.647 0-1.011 0.040v7.201zM5.34 8.617v3.843c0 1.618 0.040 2.67 0.081 3.115s0.202 0.769 0.485 1.011c0.243 0.243 0.769 0.324 1.537 0.324 1.335 0 2.346-0.364 3.034-1.052s1.011-1.74 1.011-3.115c0-1.416-0.364-2.468-1.133-3.155s-2.104-1.011-4.045-1.011c-0.324 0.040-0.647 0.040-0.971 0.040zM31.757 11.166h-6.554l-0.445 1.092c-0.647 1.578-0.971 2.63-0.971 3.075 0 0.526 0.162 0.89 0.526 1.173s0.809 0.405 1.335 0.405v0.566h-5.097v-0.566c0.769-0.121 1.335-0.405 1.699-0.809s0.809-1.295 1.335-2.63c0.040-0.121 0.243-0.607 0.607-1.456l5.016-11.934h0.485l5.745 13.633 0.769 1.78c0.162 0.405 0.405 0.728 0.728 0.971 0.283 0.243 0.769 0.364 1.335 0.445v0.566h-6.756v-0.566c0.809 0 1.375-0.081 1.659-0.202s0.445-0.364 0.445-0.728c0-0.202-0.202-0.728-0.566-1.659l-1.295-3.155zM31.515 10.599l-3.034-7.322-3.034 7.322h6.068zM59.267 17.881l-12.137-16.101v11.934c0 0.971 0.040 1.659 0.162 1.942 0.081 0.324 0.364 0.607 0.85 0.85 0.445 0.243 1.133 0.405 2.063 0.405v0.566h-6.392v-0.566c0.809-0.040 1.456-0.202 1.861-0.445 0.445-0.243 0.688-0.485 0.769-0.769s0.121-0.93 0.121-1.982v-9.102c0-1.335-0.081-2.185-0.202-2.63s-0.324-0.728-0.566-0.85c-0.283-0.121-0.85-0.202-1.78-0.202v-0.607h5.057l10.154 13.431v-10.276c0-0.769-0.081-1.295-0.243-1.578-0.162-0.324-0.485-0.526-0.971-0.728-0.485-0.162-1.052-0.283-1.74-0.283v-0.566h6.23v0.566c-0.728 0.040-1.295 0.202-1.699 0.405s-0.688 0.485-0.809 0.809c-0.121 0.324-0.162 0.85-0.162 1.578v14.2h-0.566zM73.871 9.062l5.259-4.733c1.214-1.092 1.82-1.861 1.82-2.346 0-0.688-0.607-1.052-1.82-1.092v-0.566h6.473v0.566c-0.526 0-1.052 0.121-1.618 0.324-0.526 0.202-1.011 0.526-1.456 0.85s-1.295 1.092-2.508 2.225l-3.115 2.872 6.432 6.594c1.456 1.497 2.468 2.387 2.953 2.71s1.133 0.485 1.942 0.485v0.566h-8.941v-0.566h0.324c0.971 0 1.578-0.081 1.78-0.243 0.243-0.162 0.364-0.364 0.364-0.607 0-0.364-0.607-1.133-1.82-2.387l-4.855-4.895-1.214 1.092v3.115c0 1.335 0.040 2.225 0.121 2.67 0.081 0.405 0.243 0.728 0.526 0.93s0.809 0.324 1.578 0.324h0.324v0.566h-7.727v-0.566h0.526c0.728 0 1.254-0.081 1.537-0.283s0.445-0.485 0.526-0.85c0.081-0.405 0.121-1.295 0.121-2.751v-8.455c0-1.416-0.040-2.306-0.121-2.711s-0.283-0.647-0.526-0.769c-0.243-0.121-0.89-0.202-1.82-0.202v-0.607h7.606v0.566h-0.324c-0.85 0-1.416 0.081-1.659 0.202s-0.445 0.405-0.526 0.769c-0.081 0.364-0.121 1.295-0.121 2.711v4.491zM94.908 17.315v-5.502h0.647c0.728 3.601 2.427 5.381 5.097 5.381 1.214 0 2.144-0.364 2.791-1.052s1.011-1.456 1.011-2.306-0.283-1.578-0.89-2.185c-0.566-0.566-1.659-1.173-3.196-1.861-1.375-0.607-2.427-1.092-3.115-1.537s-1.254-1.011-1.659-1.74c-0.405-0.728-0.607-1.456-0.607-2.265 0-1.214 0.405-2.225 1.254-3.075 0.85-0.809 1.942-1.214 3.236-1.214 0.728 0 1.416 0.121 2.063 0.364s1.295 0.728 1.982 1.456c0.405-0.445 0.607-0.971 0.647-1.497h0.566v4.491h-0.566c-0.324-1.295-0.89-2.346-1.699-3.075-0.809-0.769-1.74-1.133-2.832-1.133-1.011 0-1.78 0.283-2.266 0.85s-0.728 1.173-0.728 1.82c0 0.809 0.283 1.456 0.89 2.023s1.659 1.173 3.196 1.861c1.497 0.647 2.549 1.173 3.236 1.578s1.214 0.971 1.618 1.659c0.405 0.728 0.607 1.537 0.607 2.468 0 1.456-0.485 2.67-1.456 3.601s-2.306 1.375-3.924 1.375c-1.901 0-3.439-0.728-4.733-2.185-0.283 0.405-0.485 0.971-0.607 1.659h-0.566zM22.655 28.359v1.578c0 0.566 0 0.971 0.040 1.133s0.121 0.324 0.243 0.405c0.121 0.081 0.364 0.121 0.688 0.121h0.243v0.243h-3.398v-0.243h0.162c0.324 0 0.526-0.040 0.647-0.121s0.202-0.202 0.243-0.364c0.040-0.162 0.040-0.566 0.040-1.173v-3.641c0-0.607 0-0.971-0.040-1.133s-0.121-0.283-0.202-0.364c-0.121-0.081-0.364-0.081-0.728-0.081h-0.121v-0.243l0.93-0.040c0.769-0.040 1.335-0.040 1.74-0.040 0.769 0 1.375 0.040 1.78 0.162s0.769 0.324 1.011 0.647c0.283 0.324 0.405 0.688 0.405 1.173 0 0.405-0.081 0.769-0.283 1.092-0.162 0.324-0.445 0.566-0.769 0.728s-0.93 0.243-1.78 0.243h-0.85zM22.655 28.076h0.526c0.445 0 0.769-0.040 1.052-0.121s0.485-0.283 0.647-0.526c0.162-0.283 0.243-0.607 0.243-1.011 0-0.607-0.162-1.052-0.445-1.375-0.283-0.283-0.809-0.445-1.456-0.445-0.243 0-0.445 0-0.566 0.040v3.439zM36.814 31.838h-2.023c-0.364-0.243-0.89-0.89-1.618-1.942l-0.728-0.971c-0.243-0.324-0.445-0.485-0.526-0.566s-0.243-0.121-0.445-0.121h-0.283v1.659c0 0.566 0 0.971 0.040 1.133s0.121 0.324 0.202 0.405c0.121 0.081 0.364 0.121 0.688 0.121h0.364v0.243h-3.56v-0.243h0.243c0.324 0 0.526-0.040 0.647-0.121s0.202-0.202 0.243-0.364c0.040-0.162 0.040-0.566 0.040-1.173v-3.641c0-0.607 0-0.971-0.040-1.133s-0.121-0.283-0.202-0.364c-0.121-0.081-0.364-0.081-0.728-0.081h-0.121v-0.243l1.052-0.040c0.728-0.040 1.295-0.040 1.699-0.040 0.728 0 1.295 0.081 1.74 0.202s0.809 0.364 1.092 0.647c0.283 0.283 0.405 0.647 0.405 1.092 0 0.485-0.162 0.89-0.526 1.254s-0.89 0.566-1.578 0.647c0.324 0.162 0.809 0.688 1.497 1.618 0.566 0.769 1.011 1.254 1.335 1.497s0.688 0.364 1.133 0.364v0.162zM31.191 27.995c0.283 0 0.566 0 0.85-0.040 0.283 0 0.566-0.040 0.769-0.121s0.405-0.162 0.526-0.283c0.121-0.121 0.243-0.283 0.324-0.485s0.121-0.445 0.121-0.769c0-0.526-0.121-0.93-0.405-1.254-0.243-0.324-0.85-0.485-1.699-0.485-0.121 0-0.283 0-0.485 0.040v3.398zM39.686 28.076c0-1.133 0.364-2.063 1.173-2.791 0.769-0.688 1.74-1.052 2.872-1.052 1.173 0 2.144 0.364 2.913 1.052s1.173 1.618 1.173 2.832c0 1.173-0.364 2.104-1.133 2.791-0.728 0.728-1.74 1.092-2.953 1.092-1.173 0-2.144-0.364-2.913-1.092-0.769-0.688-1.133-1.659-1.133-2.832zM40.941 28.116c0 1.214 0.243 2.104 0.728 2.71s1.214 0.89 2.144 0.89c0.85 0 1.497-0.283 1.982-0.89s0.728-1.497 0.728-2.67c0-1.173-0.243-2.063-0.728-2.67s-1.173-0.93-2.104-0.93c-0.89 0-1.578 0.283-2.063 0.89-0.445 0.607-0.688 1.497-0.688 2.67zM50.893 24.475l1.214-0.081c1.011-0.040 1.699-0.081 2.063-0.081 1.092 0 1.982 0.162 2.589 0.526 0.607 0.324 1.092 0.809 1.375 1.375s0.445 1.254 0.445 1.982c0 0.566-0.081 1.052-0.243 1.497s-0.405 0.809-0.688 1.133c-0.283 0.283-0.607 0.526-1.011 0.688-0.364 0.162-0.728 0.243-1.092 0.283s-0.809 0.040-1.456 0.040h-3.317v-0.243h0.324c0.324 0 0.526-0.040 0.647-0.121s0.202-0.202 0.243-0.364c0.040-0.162 0.040-0.566 0.040-1.173v-3.641c0-0.607 0-0.971-0.040-1.133s-0.121-0.283-0.202-0.364c-0.121-0.081-0.364-0.081-0.728-0.081h-0.202v-0.243zM53.198 24.597v4.976c0 0.728 0 1.214 0.040 1.416s0.121 0.364 0.243 0.445c0.121 0.081 0.445 0.121 0.89 0.121 0.647 0 1.173-0.081 1.618-0.283 0.405-0.162 0.769-0.526 1.052-1.052s0.405-1.173 0.405-1.982c0-0.647-0.081-1.173-0.243-1.699-0.162-0.485-0.405-0.89-0.688-1.214s-0.647-0.526-1.011-0.647-0.85-0.162-1.416-0.162c-0.324 0.081-0.607 0.081-0.89 0.081zM67.398 24.394h2.508v0.243c-0.324 0.040-0.566 0.081-0.728 0.243-0.162 0.121-0.243 0.283-0.283 0.445s-0.040 0.445-0.040 0.93v2.468c0 0.647-0.040 1.092-0.081 1.416s-0.202 0.607-0.445 0.89c-0.243 0.283-0.566 0.526-1.011 0.728-0.445 0.162-0.93 0.283-1.497 0.283-0.647 0-1.214-0.121-1.699-0.324-0.445-0.243-0.809-0.526-0.971-0.89s-0.283-0.85-0.283-1.456v-3.075c0-0.607 0-0.971-0.040-1.133s-0.121-0.283-0.202-0.364c-0.121-0.081-0.364-0.081-0.728-0.081h-0.162v-0.243h3.398v0.243h-0.162c-0.364 0-0.607 0.040-0.728 0.081s-0.202 0.162-0.243 0.324-0.040 0.566-0.040 1.173v2.346c0 0.809 0.040 1.375 0.121 1.74 0.081 0.324 0.283 0.647 0.647 0.89s0.809 0.364 1.375 0.364c0.445 0 0.85-0.081 1.254-0.243 0.364-0.162 0.647-0.364 0.85-0.647 0.162-0.243 0.283-0.526 0.324-0.769 0.040-0.283 0.040-0.688 0.040-1.254v-2.549c0-0.405-0.040-0.728-0.081-0.89s-0.162-0.283-0.324-0.405c-0.162-0.081-0.405-0.162-0.769-0.162v-0.324zM79.494 29.047h0.243v2.63h-0.243c-0.081-0.283-0.202-0.566-0.364-0.769-0.647 0.728-1.497 1.092-2.508 1.092-1.092 0-1.942-0.324-2.63-1.011s-1.011-1.578-1.011-2.71c0-0.728 0.162-1.416 0.485-2.063s0.769-1.133 1.335-1.456c0.566-0.324 1.173-0.485 1.861-0.485 0.566 0 1.052 0.121 1.497 0.324 0.445 0.243 0.809 0.485 1.011 0.769 0.162-0.324 0.243-0.647 0.283-0.971h0.243l0.081 2.832h-0.243c-0.162-1.011-0.485-1.699-1.011-2.104s-1.092-0.607-1.699-0.607c-0.769 0-1.416 0.324-1.861 0.971s-0.688 1.537-0.688 2.71c0 1.133 0.243 1.982 0.769 2.589 0.485 0.607 1.133 0.89 1.861 0.89 0.405 0 0.809-0.081 1.214-0.283s0.728-0.526 1.011-0.971c0.162-0.485 0.324-0.93 0.364-1.375zM89.123 29.532h0.283l-0.162 2.306h-6.19v-0.243h0.162c0.364 0 0.607-0.040 0.728-0.162 0.121-0.081 0.162-0.243 0.202-0.364 0.040-0.162 0.040-0.526 0.040-1.173v-3.641c0-0.566 0-0.93-0.040-1.133-0.040-0.162-0.121-0.324-0.202-0.364-0.121-0.081-0.364-0.121-0.688-0.121v-0.243h5.34l0.162 1.861h-0.243c-0.121-0.526-0.243-0.89-0.445-1.092-0.162-0.202-0.364-0.364-0.607-0.405s-0.607-0.081-1.133-0.081h-1.052v3.115h0.809c0.364 0 0.607-0.040 0.769-0.081 0.162-0.081 0.243-0.162 0.283-0.283s0.081-0.364 0.081-0.728h0.243v2.549h-0.243c0-0.405-0.040-0.688-0.121-0.85-0.081-0.121-0.162-0.243-0.324-0.283-0.121-0.040-0.364-0.081-0.688-0.081h-0.809v1.78c0 0.89 0.040 1.416 0.162 1.578s0.405 0.243 0.93 0.243h0.566c0.405 0 0.728-0.040 0.971-0.162 0.243-0.081 0.485-0.324 0.728-0.607 0.202-0.364 0.364-0.769 0.485-1.335z"></path>
</symbol>
</defs>
</svg>
