<svg xmlns="http://www.w3.org/2000/svg" viewBox="0 0 369.16 365.83"><defs><style>.cls-1{isolation:isolate;}.cls-2{opacity:0.85;}.cls-3{opacity:0.2;mix-blend-mode:multiply;}.cls-4{fill:#fff;}.cls-5{fill:#e61717;}</style></defs><title>img_timing_to_sell</title><g class="cls-1"><g id="レイヤー_1" data-name="レイヤー 1"><g id="base" class="cls-2"><g class="cls-3"><path d="M147.18,36.55,145.51,40,112.7,19.11l-6.24,38.38L69.13,46.62c.95,7.78,4.71,38.61,4.71,38.61l-39,.11,15.21,35.95L12.51,132.89l24.85,30.7L5,185.32l32.3,20.33L11.88,235.44,49,247.16l-16,35.4,38.86.75s-4.37,30.78-5.48,38.53l37.63-10s4.67,31,5.83,38.68l33.58-20.16,17.35,35.45,26.41-29.22,24.43,29.28,17-35,32.82,20.87c1.27-7.75,6.24-38.38,6.24-38.38L305,324.21c-1-7.78-4.71-38.61-4.71-38.61l39-.11c-3-7.19-15.21-35.95-15.21-35.95l37.54-11.61-24.85-30.7,32.36-21.73-32.3-20.33,25.41-29.79-37.13-11.72,16-35.4-38.87-.74s4.37-30.79,5.48-38.54L270.15,59s-4.67-31-5.82-38.68l-33.6,20.16L213.38,5.05,187,34.28,162.55,5Z"/></g><path class="cls-4" d="M142.18,31.55,140.51,35,107.7,14.11l-6.24,38.38L64.13,41.62c.95,7.78,4.71,38.61,4.71,38.61l-39,.11,15.21,35.95L7.51,127.89l24.85,30.7L0,180.32l32.3,20.33L6.88,230.44,44,242.16l-16,35.4,38.86.75s-4.37,30.78-5.48,38.53l37.63-10s4.67,31,5.83,38.68l33.58-20.16,17.35,35.45,26.41-29.22,24.43,29.28,17-35,32.82,20.87c1.27-7.75,6.24-38.38,6.24-38.38L300,319.21c-1-7.78-4.71-38.61-4.71-38.61l39-.11c-3-7.19-15.21-35.95-15.21-35.95l37.54-11.61-24.85-30.7,32.36-21.73-32.3-20.33,25.41-29.79-37.13-11.72,16-35.4-38.87-.74s4.37-30.79,5.48-38.54L265.15,54s-4.67-31-5.82-38.68l-33.6,20.16L208.38.05,182,29.28,157.55,0Z"/><path class="cls-5" d="M190.5,31.7l-8.76,9.7s-15.49-18.56-22.42-26.88L143.76,46.45,113.6,27.28c-1.81,11.11-5.74,35.35-5.74,35.35l-34.38-10C74.83,63.8,77.8,88.15,77.8,88.15l-36,.1,14,33L21.07,132,44,160.34,14.57,180.1,44.3,198.82,20.7,226.47l34.24,10.81L40.21,269.85l35.77.69-5,35.53,34.62-9.23s3.67,24.43,5.38,35.73l30.83-18.5s10.89,22.23,16,32.68l24.67-27.31,22.42,26.89,15.56-31.94,30.16,19.18c1.81-11.11,5.74-35.35,5.74-35.35l34.38,10c-1.37-11.19-4.33-35.53-4.33-35.53l36-.1c-4.44-10.49-14-33-14-33l34.73-10.74-22.93-28.33,29.43-19.76L319.86,162l23.6-27.65-34.25-10.81L324,91l-35.78-.68,5-35.54L258.61,64l-5.38-35.73L222.39,46.77l-16-32.68Z"/></g><g id="text"><g class="cls-3"><path d="M104.45,188.44a15,15,0,0,0-.4,2.84c-.59,6.27-2.84,11.48-6.4,15.11a30.33,30.33,0,0,1-7.79,5.41,41,41,0,0,1-7.13,2.51A25.92,25.92,0,0,0,78,207a28.46,28.46,0,0,0,9-2.44c4.62-2.11,7.26-4.69,8.51-8.18a22.24,22.24,0,0,0,1.06-6.2,12.59,12.59,0,0,0-.2-2.11Zm-25.21,5.21a26.84,26.84,0,0,0,.33-4.75v-4.69a35,35,0,0,0-.26-4.88,67.9,67.9,0,0,0,7.06.26H130c3.17,0,4.82-.07,7.13-.26a29.92,29.92,0,0,0-.26,4.69v4.82a25.88,25.88,0,0,0,.33,4.82h-7.72V186H86.83v7.66Zm24.95-35.5a27.19,27.19,0,0,0-.33-5.08h8.05a20.34,20.34,0,0,0-.4,5.08v.79h17.82a56.61,56.61,0,0,0,7.92-.4v7a76.07,76.07,0,0,0-7.72-.33h-18v4.36h14.72a42.48,42.48,0,0,0,6.73-.33V176a57.86,57.86,0,0,0-6.73-.26H90.13a59.52,59.52,0,0,0-6.67.26v-6.8a42,42,0,0,0,6.67.33h14.06v-4.36h-17a63.12,63.12,0,0,0-7.79.33v-7a57,57,0,0,0,8,.4h16.76Zm13.73,46.06c0,1.72.59,2,5.08,2s6.07-.26,6.67-1.12.86-2.64,1.19-8.18a22.77,22.77,0,0,0,7.06,2.24c-.53,6.67-1.52,10.23-3.3,11.88-1.52,1.45-4.62,1.91-12.21,1.91-10,0-11.81-.86-11.81-5.68V193.72a37.23,37.23,0,0,0-.26-5.48h7.92a27.06,27.06,0,0,0-.33,5.15Z"/><path d="M160.42,154.79c-.79,2.24-1.12,4-2.38,12.74-.46,2.77-.73,5-.86,6.6h.2a14.21,14.21,0,0,0,.4-1.45,26.68,26.68,0,0,1,4.16-7.85c3.63-4.49,7.72-6.73,12.54-6.73A13.82,13.82,0,0,1,185.76,164c3.3,4.42,4.75,9.77,4.75,17.55,0,12.74-5.94,22.24-17,27.12a56.27,56.27,0,0,1-12.93,3.7,25.25,25.25,0,0,0-3.89-7.79c6.6-.73,10.43-1.72,14.45-3.76,7.66-3.89,11.15-10.16,11.15-20.19,0-9.5-3.17-14.78-8.84-14.78-2.51,0-4.82,1.12-7.13,3.5A31.64,31.64,0,0,0,158,190.69v1.39l-7.92.13a5.13,5.13,0,0,0,.07-.86v-1.25c-.07-1.91-.2-6.8-.2-8.12,0-5.35.4-12.67.92-17.22l1-8.18a15.54,15.54,0,0,0,.2-2.24Z"/><path d="M203.45,163.43a62.05,62.05,0,0,0-.26-6.67,57.18,57.18,0,0,0,5.81.2h8c3,0,4.16-.07,5.74-.2a49.45,49.45,0,0,0-.2,6.53V201c0,3.5.07,4.95.2,6.6H216v-3.3h-6v5.54h-6.93a60.18,60.18,0,0,0,.4-7.85Zm6.6,13.59H216V163.23h-5.94Zm0,20.92H216V183.1h-5.94Zm22.7-31.22a55.79,55.79,0,0,0-7.06.33v-7a48.07,48.07,0,0,0,6.86.4h5.81v-1.78a29.44,29.44,0,0,0-.4-5h7.59a35.06,35.06,0,0,0-.33,5v1.78h7.19a48.71,48.71,0,0,0,6.86-.4v7a47.91,47.91,0,0,0-6.8-.33h-7.26V173h9.11a48.77,48.77,0,0,0,7.19-.4v7a43,43,0,0,0-6.47-.33h-1.12v5.61h.86a40.16,40.16,0,0,0,6.53-.33v7.19a36,36,0,0,0-6.53-.4h-.86v14.92c0,3.83-.66,5.41-2.64,6.33a18.5,18.5,0,0,1-7.26,1.06l-5.15-.07a17,17,0,0,0-1.58-6.93,58.83,58.83,0,0,0,7.39.53c2,0,2.44-.33,2.44-1.78V191.35H231.37a59.16,59.16,0,0,0-7.06.4v-7.19a48.87,48.87,0,0,0,7.19.33h15.64v-5.61H231.5c-2.77,0-5.21.13-7.26.33v-7a50.83,50.83,0,0,0,7.33.4h6.8v-6.27Zm2.57,39.93a50.42,50.42,0,0,0-8.45-10.82l5.61-3.7a50.61,50.61,0,0,1,8.65,10.1Z"/><path d="M281.66,195.44c.07-1.39.13-2,.13-2.84s0-.73-.2-4.69l-.92-22.44c-.13-2.9-.33-6.2-.59-8.05H290.9c-.2,1.78-.46,5.21-.59,8.05l-.92,22.44c-.13,3.83-.13,3.83-.13,4.75a23.6,23.6,0,0,0,.13,2.77Zm-.92,14.45v-9h9.57v9Z"/></g><path class="cls-4" d="M102.45,186.44a15,15,0,0,0-.4,2.84c-.59,6.27-2.84,11.48-6.4,15.11a30.33,30.33,0,0,1-7.79,5.41,41,41,0,0,1-7.13,2.51A25.92,25.92,0,0,0,76,205a28.46,28.46,0,0,0,9-2.44c4.62-2.11,7.26-4.69,8.51-8.18a22.24,22.24,0,0,0,1.06-6.2,12.59,12.59,0,0,0-.2-2.11Zm-25.21,5.21a26.84,26.84,0,0,0,.33-4.75v-4.69a35,35,0,0,0-.26-4.88,67.9,67.9,0,0,0,7.06.26H128c3.17,0,4.82-.07,7.13-.26a29.92,29.92,0,0,0-.26,4.69v4.82a25.88,25.88,0,0,0,.33,4.82h-7.72V184H84.83v7.66Zm24.95-35.5a27.19,27.19,0,0,0-.33-5.08h8.05a20.34,20.34,0,0,0-.4,5.08v.79h17.82a56.61,56.61,0,0,0,7.92-.4v7a76.07,76.07,0,0,0-7.72-.33h-18v4.36h14.72a42.48,42.48,0,0,0,6.73-.33V174a57.86,57.86,0,0,0-6.73-.26H88.13a59.52,59.52,0,0,0-6.67.26v-6.8a42,42,0,0,0,6.67.33h14.06v-4.36h-17a63.12,63.12,0,0,0-7.79.33v-7a57,57,0,0,0,8,.4h16.76Zm13.73,46.06c0,1.72.59,2,5.08,2s6.07-.26,6.67-1.12.86-2.64,1.19-8.18a22.77,22.77,0,0,0,7.06,2.24c-.53,6.67-1.52,10.23-3.3,11.88-1.52,1.45-4.62,1.91-12.21,1.91-10,0-11.81-.86-11.81-5.68V191.72a37.23,37.23,0,0,0-.26-5.48h7.92a27.06,27.06,0,0,0-.33,5.15Z"/><path class="cls-4" d="M158.42,152.79c-.79,2.24-1.12,4-2.38,12.74-.46,2.77-.73,5-.86,6.6h.2a14.21,14.21,0,0,0,.4-1.45,26.68,26.68,0,0,1,4.16-7.85c3.63-4.49,7.72-6.73,12.54-6.73A13.82,13.82,0,0,1,183.76,162c3.3,4.42,4.75,9.77,4.75,17.55,0,12.74-5.94,22.24-17,27.12a56.27,56.27,0,0,1-12.93,3.7,25.25,25.25,0,0,0-3.89-7.79c6.6-.73,10.43-1.72,14.45-3.76,7.66-3.89,11.15-10.16,11.15-20.19,0-9.5-3.17-14.78-8.84-14.78-2.51,0-4.82,1.12-7.13,3.5A31.64,31.64,0,0,0,156,188.69v1.39l-7.92.13a5.13,5.13,0,0,0,.07-.86v-1.25c-.07-1.91-.2-6.8-.2-8.12,0-5.35.4-12.67.92-17.22l1-8.18a15.54,15.54,0,0,0,.2-2.24Z"/><path class="cls-4" d="M201.45,161.43a62.05,62.05,0,0,0-.26-6.67,57.18,57.18,0,0,0,5.81.2h8c3,0,4.16-.07,5.74-.2a49.45,49.45,0,0,0-.2,6.53V199c0,3.5.07,4.95.2,6.6H214v-3.3h-6v5.54h-6.93a60.18,60.18,0,0,0,.4-7.85Zm6.6,13.59H214V161.23h-5.94Zm0,20.92H214V181.1h-5.94Zm22.7-31.22a55.79,55.79,0,0,0-7.06.33v-7a48.07,48.07,0,0,0,6.86.4h5.81v-1.78a29.44,29.44,0,0,0-.4-5h7.59a35.06,35.06,0,0,0-.33,5v1.78h7.19a48.71,48.71,0,0,0,6.86-.4v7a47.91,47.91,0,0,0-6.8-.33h-7.26V171h9.11a48.77,48.77,0,0,0,7.19-.4v7a43,43,0,0,0-6.47-.33h-1.12v5.61h.86a40.16,40.16,0,0,0,6.53-.33v7.19a36,36,0,0,0-6.53-.4h-.86v14.92c0,3.83-.66,5.41-2.64,6.33a18.5,18.5,0,0,1-7.26,1.06l-5.15-.07a17,17,0,0,0-1.58-6.93,58.83,58.83,0,0,0,7.39.53c2,0,2.44-.33,2.44-1.78V189.35H229.37a59.16,59.16,0,0,0-7.06.4v-7.19a48.87,48.87,0,0,0,7.19.33h15.64v-5.61H229.5c-2.77,0-5.21.13-7.26.33v-7a50.83,50.83,0,0,0,7.33.4h6.8v-6.27Zm2.57,39.93a50.42,50.42,0,0,0-8.45-10.82l5.61-3.7a50.61,50.61,0,0,1,8.65,10.1Z"/><path class="cls-4" d="M279.66,193.44c.07-1.39.13-2,.13-2.84s0-.73-.2-4.69l-.92-22.44c-.13-2.9-.33-6.2-.59-8.05H288.9c-.2,1.78-.46,5.21-.59,8.05l-.92,22.44c-.13,3.83-.13,3.83-.13,4.75a23.6,23.6,0,0,0,.13,2.77Zm-.92,14.45v-9h9.57v9Z"/></g></g></g></svg>