<svg id="_綫1" data-name="ﾍｼｲ綫1" xmlns="http://www.w3.org/2000/svg" viewBox="0 0 69.33 66.51"><defs><style>.cls-1{fill:#3467e0;}</style></defs><title>img_freedial</title><path class="cls-1" d="M49.23,44.53a3.6,3.6,0,0,0-5.09-.19l-6,6a3.28,3.28,0,0,0-.92,1.82A83.1,83.1,0,0,1,24.75,41.75,83.09,83.09,0,0,1,14.39,29.23a3.27,3.27,0,0,0,1.81-.92l6-6A3.6,3.6,0,0,0,22,17.28L15.54,8.75c-1.45-1.46-3-3-6.6-1.71C5.65,8.19,2.58,13,2,13.89L1.9,14c-5.5,5.5,1.36,21.29,15.33,35.27S47,70.11,52.5,64.61l.12-.13c.89-.55,5.7-3.62,6.85-6.91,1.27-3.63-.25-5.14-1.71-6.6Z"/><path class="cls-1" d="M69.33,16.75C69.33,26,59.74,33.5,47.9,33.5c-.56,0-1.12,0-1.67-.05h0s-2.61-.21-3.72.58c-2.73,2-7.54,4.7-12.76,3.73,0,0-.56-.09-.2-.44.76-.73,7.13-4.5,3.35-8.6-4-3-6.44-7.28-6.44-12C26.48,7.5,36.07,0,47.9,0S69.33,7.5,69.33,16.75ZM31.49,21.65V16.78h5V15.51h-5V12.18h5.82V10.92H30.07V21.65Zm8.36,0V16.89H41.5a4.27,4.27,0,0,1,.79.05,2.14,2.14,0,0,1,.65.29,3.23,3.23,0,0,1,.72.72q.4.51,1,1.48l1.42,2.23h1.79L46,18.73a7.42,7.42,0,0,0-1.18-1.43,3.71,3.71,0,0,0-.86-.53,3.74,3.74,0,0,0,2.29-1A2.7,2.7,0,0,0,47,13.85a3,3,0,0,0-.45-1.62,2.39,2.39,0,0,0-1.19-1,6.36,6.36,0,0,0-2.18-.29H38.43V21.65Zm0-9.55h3.4a2.59,2.59,0,0,1,1.75.49,1.6,1.6,0,0,1,.55,1.25,1.74,1.74,0,0,1-.29,1,1.62,1.62,0,0,1-.83.64,4.57,4.57,0,0,1-1.52.2H39.85Zm16.68,9.55V20.39H49.94V16.73h5.94V15.47H49.94V12.18h6.34V10.92H48.52V21.65Zm9.25,0V20.39H59.19V16.73h5.94V15.47H59.19V12.18h6.34V10.92H57.77V21.65Z"/></svg>